HIERARCHY
ROOT Pelvis
{
	OFFSET 0.000000 0.000000 0.000000
	CHANNELS 6 Xposition Yposition Zposition Xrotation Yrotation Zrotation
	JOINT LeftUpLeg_virtual
	{
		OFFSET 0.000000 0.000000 0.000000
		CHANNELS 3 Xrotation Yrotation Zrotation
		JOINT LeftUpLeg
		{
			OFFSET 18.735201 -5.666702 -4.541200
			CHANNELS 3 Xrotation Yrotation Zrotation
			JOINT LeftLeg
			{
				OFFSET -0.021200 -31.938179 0.493100
				CHANNELS 3 Xrotation Yrotation Zrotation
				JOINT LeftFoot
				{
					OFFSET 0.021200 -31.938179 -4.336299
					CHANNELS 3 Xrotation Yrotation Zrotation
					JOINT LeftToeBase
					{
						OFFSET 0.943001 -26.722000 15.023500
						CHANNELS 3 Xrotation Yrotation Zrotation
						End Site
						{
							OFFSET 0 0 0
						}
					}
				}
			}
		}
	}
	JOINT RightUpLeg_virtual
	{
		OFFSET 0.000000 0.000000 0.000000
		CHANNELS 3 Xrotation Yrotation Zrotation
		JOINT RightUpLeg
		{
			OFFSET -18.735201 -5.666702 -4.541200
			CHANNELS 3 Xrotation Yrotation Zrotation
			JOINT RightLeg
			{
				OFFSET 0.018946 -31.938133 0.493100
				CHANNELS 3 Xrotation Yrotation Zrotation
				JOINT RightFoot
				{
					OFFSET -0.018946 -31.938126 -4.336299
					CHANNELS 3 Xrotation Yrotation Zrotation
					JOINT RightToeBase
					{
						OFFSET -0.943001 -26.722004 15.023500
						CHANNELS 3 Xrotation Yrotation Zrotation
						End Site
						{
							OFFSET 0 0 0
						}
					}
				}
			}
		}
	}
	JOINT Hips_virtual
	{
		OFFSET 0.000000 0.000000 0.000000
		CHANNELS 3 Xrotation Yrotation Zrotation
		JOINT Hips
		{
			OFFSET -0.000000 -0.000000 -0.000000
			CHANNELS 3 Xrotation Yrotation Zrotation
			JOINT Spine
			{
				OFFSET 0.000000 10.199997 -0.299500
				CHANNELS 3 Xrotation Yrotation Zrotation
				JOINT Spine1
				{
					OFFSET 0.000000 11.900002 -1.516600
					CHANNELS 3 Xrotation Yrotation Zrotation
					JOINT Spine2
					{
						OFFSET 0.000000 13.600006 -2.842500
						CHANNELS 3 Xrotation Yrotation Zrotation
						JOINT Neck_virtual
						{
							OFFSET 0.000000 0.000000 0.000000
							CHANNELS 3 Xrotation Yrotation Zrotation
							JOINT Neck
							{
								OFFSET 0.000000 9.624100 -2.890100
								CHANNELS 3 Xrotation Yrotation Zrotation
								JOINT Head
								{
									OFFSET 0.000000 14.068802 -1.351900
									CHANNELS 3 Xrotation Yrotation Zrotation
									End Site
									{
										OFFSET 0 0 0
									}
								}
							}
						}
						JOINT LeftShoulder_virtual
						{
							OFFSET 0.000000 0.000000 0.000000
							CHANNELS 3 Xrotation Yrotation Zrotation
							JOINT LeftShoulder
							{
								OFFSET 15.263000 10.923401 -0.547700
								CHANNELS 3 Xrotation Yrotation Zrotation
								JOINT LeftArm
								{
									OFFSET 25.438599 -2.830597 -13.032500
									CHANNELS 3 Xrotation Yrotation Zrotation
									JOINT LeftForeArm
									{
										OFFSET 29.960503 0.000000 0.000000
										CHANNELS 3 Xrotation Yrotation Zrotation
										JOINT LeftHand
										{
											OFFSET 27.849251 0.000000 0.000000
											CHANNELS 3 Xrotation Yrotation Zrotation
											End Site
											{
												OFFSET 0 0 0
											}
										}
									}
								}
							}
						}
						JOINT RightShoulder_virtual
						{
							OFFSET 0.000000 0.000000 0.000000
							CHANNELS 3 Xrotation Yrotation Zrotation
							JOINT RightShoulder
							{
								OFFSET -15.263000 10.923401 -0.547700
								CHANNELS 3 Xrotation Yrotation Zrotation
								JOINT RightArm
								{
									OFFSET -25.438599 -2.830597 -13.032500
									CHANNELS 3 Xrotation Yrotation Zrotation
									JOINT RightForeArm
									{
										OFFSET -29.960503 0.000000 0.000000
										CHANNELS 3 Xrotation Yrotation Zrotation
										JOINT RightHand
										{
											OFFSET -27.849251 0.000000 0.000000
											CHANNELS 3 Xrotation Yrotation Zrotation
											End Site
											{
												OFFSET 0 0 0
											}
										}
									}
								}
							}
						}
					}
				}
			}
		}
	}
}
MOTION
Frames: 8
Frame Time: 0.03333333
-0.102419 93.040787 4.119146 0.000000 0.000000 0.000000 1.893974 -2.189136 -0.155982 -9.661829 -5.894693 11.736487 20.863352 -0.893526 -1.863543 -10.218830 15.306683 -10.557927 0.000000 0.000000 0.000000 1.893974 -2.189136 -0.155982 -6.993034 -4.455426 -11.083424 19.820063 0.336294 0.177607 -12.883474 -11.623807 9.702396 0.000000 0.000000 0.000000 1.893974 -2.189136 -0.155982 0.000000 0.000000 0.000000 2.070962 0.275704 0.912526 3.430435 -0.015269 0.185037 0.000000 0.000000 0.000000 3.430500 0.005500 0.178976 -1.410903 -0.004787 -0.013036 0.000000 0.000000 0.000000 3.430500 0.005500 0.178976 0.742837 8.952361 -13.053725 10.737611 -6.254788 -54.002604 0.000006 -32.994274 0.000007 0.000000 0.000000 0.000000 3.430500 0.005500 0.178976 1.078070 -8.352865 11.371669 3.407869 18.890958 61.317333 -0.000004 23.538778 0.000016 0.000000 0.000000 0.000000 
-0.230395 93.089317 4.085032 0.000000 0.000000 0.000000 1.872845 -2.346221 0.141435 -10.870168 -6.286314 11.528332 22.370818 -0.959042 -1.898578 -9.005627 15.389149 -11.102302 0.000000 0.000000 0.000000 1.872845 -2.346221 0.141435 -7.344644 -4.400224 -11.350233 20.328118 0.476333 0.167002 -13.079007 -11.562283 9.636851 0.000000 0.000000 0.000000 1.872845 -2.346221 0.141435 0.000000 0.000000 0.000000 2.291584 -0.020995 0.677267 3.107404 -0.084774 0.120758 0.000000 0.000000 0.000000 3.107846 -0.065907 0.115675 -1.290490 0.012476 -0.009677 0.000000 0.000000 0.000000 3.107846 -0.065907 0.115675 0.736511 8.806731 -13.031570 10.933039 -6.745925 -54.051033 -0.000003 -32.945288 -0.000015 0.000000 0.000000 0.000000 3.107846 -0.065907 0.115675 1.091566 -8.197193 11.485088 3.504185 18.923107 61.185982 -0.000001 23.701525 0.000015 0.000000 0.000000 0.000000 
-0.459994 93.107193 4.065577 0.000000 0.000000 0.000000 1.851749 -2.479147 0.450865 -13.118738 -6.129482 11.653262 24.926311 -1.138788 -1.956295 -7.028663 14.584286 -12.102564 0.000000 0.000000 0.000000 1.851749 -2.479147 0.450865 -7.808913 -4.308873 -11.551447 21.157535 0.615043 0.167254 -13.496884 -11.539687 9.468000 0.000000 0.000000 0.000000 1.851749 -2.479147 0.450865 0.000000 0.000000 0.000000 2.558841 -0.384147 0.436960 2.747828 -0.169165 0.053065 0.000000 0.000000 0.000000 2.748702 -0.152292 0.049086 -1.155663 0.032841 -0.005693 0.000000 0.000000 0.000000 2.748702 -0.152292 0.049086 0.729838 8.654329 -13.018120 11.156659 -7.294853 -54.080663 0.000004 -32.921041 0.000007 0.000000 0.000000 0.000000 2.748702 -0.152292 0.049086 1.096787 -8.002335 11.568712 3.614129 18.945278 61.044638 -0.000002 23.957201 0.000020 0.000000 0.000000 0.000000 
-0.789282 93.103142 4.073233 0.000000 0.000000 0.000000 1.831052 -2.605053 0.749211 -17.903200 -5.588476 10.710882 31.188484 -0.466579 -1.919207 -5.231181 13.014441 -10.706714 0.000000 0.000000 0.000000 1.831052 -2.605053 0.749211 -8.313571 -4.188841 -11.649633 22.174627 0.760685 0.174376 -14.080992 -11.560272 9.183414 0.000000 0.000000 0.000000 1.831052 -2.605053 0.749211 0.000000 0.000000 0.000000 2.848420 -0.778685 0.206766 2.373875 -0.260962 -0.016101 0.000000 0.000000 0.000000 2.375220 -0.246129 -0.018902 -1.013716 0.054705 -0.001170 0.000000 0.000000 0.000000 2.375220 -0.246129 -0.018902 0.723122 8.496003 -13.005179 11.389999 -7.878153 -54.103984 -0.000008 -32.909019 -0.000011 0.000000 0.000000 0.000000 2.375220 -0.246129 -0.018902 1.096976 -7.781049 11.642711 3.743083 18.979035 60.878856 -0.000002 24.271410 0.000027 0.000000 0.000000 0.000000 
-1.107639 92.926941 4.121542 0.000000 0.000000 0.000000 1.810690 -2.735916 0.986241 -23.138635 -4.571269 10.149550 37.012262 -0.614756 -1.852978 -1.395883 10.784952 -10.645489 0.000000 0.000000 0.000000 1.810690 -2.735916 0.986241 -9.166148 -3.932448 -11.735125 24.039686 0.991240 0.198174 -15.136452 -11.713330 8.897290 0.000000 0.000000 0.000000 1.810690 -2.735916 0.986241 0.000000 0.000000 0.000000 3.156812 -1.184444 0.028281 1.995518 -0.356286 -0.085877 0.000000 0.000000 0.000000 1.997349 -0.343515 -0.087451 -0.866957 0.077315 0.004008 0.000000 0.000000 0.000000 1.997349 -0.343515 -0.087451 0.716351 8.326971 -12.991419 11.631050 -8.501355 -54.118748 -0.000007 -32.909443 -0.000012 0.000000 0.000000 0.000000 1.997349 -0.343515 -0.087451 1.093917 -7.533890 11.715177 3.896483 19.033855 60.675562 0.000001 24.640532 -0.000007 0.000000 0.000000 0.000000 
-1.452241 92.746201 4.138056 0.000000 0.000000 0.000000 1.791399 -2.895059 1.215807 -25.801458 -2.813706 10.081270 39.353214 -1.012727 -1.825313 1.357042 8.233979 -11.056336 0.000000 0.000000 0.000000 1.791399 -2.895059 1.215807 -10.040752 -3.617529 -11.755994 25.906960 1.247845 0.224563 -16.190344 -11.922554 8.526353 0.000000 0.000000 0.000000 1.791399 -2.895059 1.215807 0.000000 0.000000 0.000000 3.472311 -1.570168 -0.160022 1.629667 -0.448459 -0.153849 0.000000 0.000000 0.000000 1.631971 -0.437753 -0.154194 -0.720429 0.099540 0.009984 0.000000 0.000000 0.000000 1.631971 -0.437753 -0.154194 0.709498 8.143617 -12.975450 11.878151 -9.163496 -54.123297 -0.000008 -32.923527 -0.000011 0.000000 0.000000 0.000000 1.631971 -0.437753 -0.154194 1.090254 -7.265418 11.796479 4.077674 19.119120 60.423064 -0.000006 25.052292 0.000027 0.000000 0.000000 0.000000 
-1.905352 92.867111 4.010460 0.000000 0.000000 0.000000 1.774539 -3.098619 1.535344 -24.420834 -0.165227 9.682870 37.828087 -0.682248 -1.830413 -0.779378 5.939524 -9.768007 0.000000 0.000000 0.000000 1.774539 -3.098619 1.535344 -10.421113 -3.417764 -11.652456 26.421649 1.407520 0.225566 -16.464883 -12.017089 7.986732 0.000000 0.000000 0.000000 1.774539 -3.098619 1.535344 0.000000 0.000000 0.000000 3.776344 -1.914971 -0.457993 1.297264 -0.529577 -0.216042 0.000000 0.000000 0.000000 1.299994 -0.520887 -0.215221 -0.580954 0.120233 0.016943 0.000000 0.000000 0.000000 1.299994 -0.520887 -0.215221 0.702417 7.944985 -12.955608 12.132215 -9.857731 -54.116914 0.000010 -32.955103 0.000015 0.000000 0.000000 0.000000 1.299994 -0.520887 -0.215221 1.088582 -6.982305 11.896796 4.287072 19.240402 60.112905 0.000003 25.493326 -0.000011 0.000000 0.000000 0.000000 
-2.349131 93.146362 3.822628 0.000000 0.000000 0.000000 1.762280 -3.368438 1.860949 -20.230196 2.865161 8.494454 33.545856 0.512747 -1.832541 -5.964888 3.925727 -6.879517 0.000000 0.000000 0.000000 1.762280 -3.368438 1.860949 -10.512115 -3.369235 -11.553040 26.078202 1.545414 0.198783 -16.170971 -11.942833 7.537297 0.000000 0.000000 0.000000 1.762280 -3.368438 1.860949 0.000000 0.000000 0.000000 4.055339 -2.185411 -0.778987 1.018687 -0.592616 -0.267685 0.000000 0.000000 0.000000 1.021734 -0.585820 -0.265839 -0.456048 0.138627 0.025100 0.000000 0.000000 0.000000 1.021734 -0.585820 -0.265839 0.694786 7.732934 -12.929731 12.398931 -10.575115 -54.098821 -0.000004 -33.010834 -0.000008 0.000000 0.000000 0.000000 1.021734 -0.585820 -0.265839 1.090790 -6.691036 12.024290 4.521660 19.394192 59.741513 -0.000002 25.958030 0.000011 0.000000 0.000000 0.000000 
